/* XPM */
static char * floor_xpm[] = {
"64 64 614 2",
"  	c #265434",
". 	c #275735",
"+ 	c #2B5E3B",
"@ 	c #245132",
"# 	c #285340",
"$ 	c #2B4F4C",
"% 	c #2C514E",
"& 	c #254543",
"* 	c #284A47",
"= 	c #2E5451",
"- 	c #284A48",
"; 	c #274947",
"> 	c #294B49",
", 	c #2B504D",
"' 	c #264846",
") 	c #295045",
"! 	c #377549",
"~ 	c #38774B",
"{ 	c #367449",
"] 	c #29543A",
"^ 	c #25303B",
"/ 	c #283440",
"( 	c #26333D",
"_ 	c #2C573F",
": 	c #367348",
"< 	c #326C44",
"[ 	c #1D3F2A",
"} 	c #202B35",
"| 	c #27333F",
"1 	c #283540",
"2 	c #2C494B",
"3 	c #2F5653",
"4 	c #284B48",
"5 	c #1B4026",
"6 	c #37754A",
"7 	c #306444",
"8 	c #2A4F4B",
"9 	c #2D5350",
"0 	c #2D524F",
"a 	c #346C4A",
"b 	c #295A38",
"c 	c #1E2832",
"d 	c #242F3A",
"e 	c #202A34",
"f 	c #222D37",
"g 	c #24303B",
"h 	c #2D623D",
"i 	c #336E45",
"j 	c #2F6740",
"k 	c #2E6045",
"l 	c #2C504D",
"m 	c #2E5552",
"n 	c #23403F",
"o 	c #274745",
"p 	c #2C514F",
"q 	c #2C524F",
"r 	c #2D5250",
"s 	c #305E4E",
"t 	c #39794C",
"u 	c #3A7A4D",
"v 	c #3A7B4E",
"w 	c #2D603F",
"x 	c #26323E",
"y 	c #27343F",
"z 	c #2A4141",
"A 	c #275138",
"B 	c #347046",
"C 	c #336F45",
"D 	c #2B5B3C",
"E 	c #24303A",
"F 	c #283641",
"G 	c #2D4C4D",
"H 	c #2D534F",
"I 	c #2F6540",
"J 	c #357147",
"K 	c #346D4A",
"L 	c #2F5C4E",
"M 	c #274A47",
"N 	c #264745",
"O 	c #305F4C",
"P 	c #346D4C",
"Q 	c #223037",
"R 	c #25303C",
"S 	c #26313D",
"T 	c #306740",
"U 	c #37764A",
"V 	c #3A7C4E",
"W 	c #3A7B4D",
"X 	c #33664B",
"Y 	c #2B474A",
"Z 	c #2D4F4E",
"` 	c #2C4D4D",
" .	c #2C4C4C",
"..	c #2F5552",
"+.	c #2F5451",
"@.	c #315F51",
"#.	c #336849",
"$.	c #283640",
"%.	c #2A4241",
"&.	c #36704B",
"*.	c #366E4A",
"=.	c #293842",
"-.	c #2E5250",
";.	c #2E5551",
">.	c #2F5852",
",.	c #39784E",
"'.	c #39794E",
").	c #336650",
"!.	c #2E5751",
"~.	c #37714F",
"{.	c #2A4441",
"].	c #336D44",
"^.	c #3B7D4F",
"/.	c #315B47",
"(.	c #293943",
"_.	c #2A4247",
":.	c #2F5452",
"<.	c #2D4E4E",
"[.	c #2F5753",
"}.	c #346752",
"|.	c #3B7C4F",
"1.	c #315D47",
"2.	c #283340",
"3.	c #293C41",
"4.	c #3B7E4F",
"5.	c #336248",
"6.	c #293641",
"7.	c #2D4C4C",
"8.	c #305A53",
"9.	c #387550",
"0.	c #3A7C50",
"a.	c #346C4B",
"b.	c #2C5A48",
"c.	c #3A7A50",
"d.	c #3A7A4E",
"e.	c #2D4B44",
"f.	c #26323D",
"g.	c #27323E",
"h.	c #315B46",
"i.	c #273340",
"j.	c #2A3E45",
"k.	c #2B4649",
"l.	c #2B4549",
"m.	c #2C4A4B",
"n.	c #2A3F41",
"o.	c #325F47",
"p.	c #2F5854",
"q.	c #3B7E50",
"r.	c #357248",
"s.	c #2B5C3D",
"t.	c #3C7F50",
"u.	c #3A7B4F",
"v.	c #2E5144",
"w.	c #27303F",
"x.	c #232E39",
"y.	c #1C272F",
"z.	c #32614B",
"A.	c #2B4448",
"B.	c #293942",
"C.	c #2A3E44",
"D.	c #2B4542",
"E.	c #315C47",
"F.	c #2C4B4C",
"G.	c #2D4F4C",
"H.	c #38724E",
"I.	c #2E5E40",
"J.	c #346749",
"K.	c #346649",
"L.	c #305847",
"M.	c #2C4B49",
"N.	c #2D4D4E",
"O.	c #2E5150",
"P.	c #2C4F4E",
"Q.	c #2A4A4A",
"R.	c #274746",
"S.	c #336F46",
"T.	c #346951",
"U.	c #2A3F45",
"V.	c #2C4943",
"W.	c #293D41",
"X.	c #37704B",
"Y.	c #366E4B",
"Z.	c #397750",
"`.	c #315B52",
" +	c #347147",
".+	c #366F4B",
"++	c #397850",
"@+	c #315B53",
"#+	c #293E44",
"$+	c #346751",
"%+	c #283740",
"&+	c #39774D",
"*+	c #376F4B",
"=+	c #293B41",
"-+	c #315C52",
";+	c #357348",
">+	c #2B4347",
",+	c #2B4548",
"'+	c #2D4E47",
")+	c #305A46",
"!+	c #35684A",
"~+	c #34684A",
"{+	c #2B4643",
"]+	c #2A3E41",
"^+	c #305746",
"/+	c #315A46",
"(+	c #2D4C46",
"_+	c #293A43",
":+	c #2A4046",
"<+	c #293A41",
"[+	c #315E4D",
"}+	c #346952",
"|+	c #346852",
"1+	c #33674E",
"2+	c #293941",
"3+	c #315D4D",
"4+	c #33624F",
"5+	c #2B4647",
"6+	c #283D43",
"7+	c #263A40",
"8+	c #26393F",
"9+	c #2D633E",
"0+	c #283240",
"a+	c #3C7F4F",
"b+	c #2E4F44",
"c+	c #27313F",
"d+	c #293F45",
"e+	c #2A3D45",
"f+	c #2D4D4D",
"g+	c #2B4749",
"h+	c #283841",
"i+	c #2D4F4F",
"j+	c #2F5553",
"k+	c #315F52",
"l+	c #3C7E50",
"m+	c #366B4B",
"n+	c #283741",
"o+	c #2E514F",
"p+	c #293841",
"q+	c #28343F",
"r+	c #2D4E44",
"s+	c #27323F",
"t+	c #2D504F",
"u+	c #2F5853",
"v+	c #3A794F",
"w+	c #356B4A",
"x+	c #293940",
"y+	c #2E524F",
"z+	c #38784B",
"A+	c #3A794E",
"B+	c #2E5452",
"C+	c #2E5351",
"D+	c #2A4146",
"E+	c #293A42",
"F+	c #2E5145",
"G+	c #283642",
"H+	c #293D44",
"I+	c #293742",
"J+	c #2A4147",
"K+	c #2C4E4E",
"L+	c #2E5450",
"M+	c #2B4244",
"N+	c #2A3D41",
"O+	c #29413F",
"P+	c #25383A",
"Q+	c #242E3A",
"R+	c #264738",
"S+	c #2C513F",
"T+	c #326048",
"U+	c #2F5145",
"V+	c #2D4C44",
"W+	c #2B4444",
"X+	c #2A4045",
"Y+	c #30594F",
"Z+	c #37704C",
"`+	c #38724C",
" @	c #38734C",
".@	c #326148",
"+@	c #315E4F",
"@@	c #293B44",
"#@	c #305C52",
"$@	c #376F4D",
"%@	c #39754D",
"&@	c #346E46",
"*@	c #347146",
"=@	c #326153",
"-@	c #3A7B50",
";@	c #356A4A",
">@	c #326252",
",@	c #346F46",
"'@	c #306741",
")@	c #283541",
"!@	c #2E5553",
"~@	c #326052",
"{@	c #3B7C50",
"]@	c #326352",
"^@	c #366C4A",
"/@	c #2D504E",
"(@	c #315F53",
"_@	c #3A7A4F",
":@	c #36714D",
"<@	c #316747",
"[@	c #316748",
"}@	c #293B43",
"|@	c #2A4246",
"1@	c #305A4F",
"2@	c #326152",
"3@	c #336551",
"4@	c #37704D",
"5@	c #37724C",
"6@	c #336249",
"7@	c #326049",
"8@	c #305A4E",
"9@	c #2D4E4D",
"0@	c #2A4142",
"a@	c #30584E",
"b@	c #336451",
"c@	c #293840",
"d@	c #30584F",
"e@	c #377250",
"f@	c #397650",
"g@	c #387350",
"h@	c #32634F",
"i@	c #2F5752",
"j@	c #2F5B4C",
"k@	c #283842",
"l@	c #2F5851",
"m@	c #37714D",
"n@	c #2C4743",
"o@	c #2C4848",
"p@	c #2C4949",
"q@	c #336450",
"r@	c #366D4C",
"s@	c #38734D",
"t@	c #2C484A",
"u@	c #2F5751",
"v@	c #305B53",
"w@	c #305953",
"x@	c #283742",
"y@	c #2A4041",
"z@	c #28333F",
"A@	c #325E47",
"B@	c #38744D",
"C@	c #2B4242",
"D@	c #2F5652",
"E@	c #293C43",
"F@	c #387650",
"G@	c #2B4348",
"H@	c #293C44",
"I@	c #264744",
"J@	c #2E514C",
"K@	c #38744E",
"L@	c #2D4C49",
"M@	c #2F544C",
"N@	c #346851",
"O@	c #2E5048",
"P@	c #315D50",
"Q@	c #34674A",
"R@	c #346849",
"S@	c #2E5044",
"T@	c #2A4143",
"U@	c #33634F",
"V@	c #305A51",
"W@	c #305B51",
"X@	c #2B5545",
"Y@	c #2A3F42",
"Z@	c #37714C",
"`@	c #305B52",
" #	c #39764D",
".#	c #315D51",
"+#	c #2F5B50",
"@#	c #2E5050",
"##	c #3A7950",
"$#	c #356D50",
"%#	c #2F594F",
"&#	c #305D50",
"*#	c #347049",
"=#	c #36704D",
"-#	c #2F6344",
";#	c #32614E",
">#	c #305A49",
",#	c #336549",
"'#	c #2B4642",
")#	c #2B4543",
"!#	c #356B4F",
"~#	c #377051",
"{#	c #33644F",
"]#	c #2D4B43",
"^#	c #315F4F",
"/#	c #274B3A",
"(#	c #204A2E",
"_#	c #2D4D44",
":#	c #2C4A43",
"<#	c #3A784E",
"[#	c #377251",
"}#	c #2F5953",
"|#	c #356B51",
"1#	c #202F33",
"2#	c #26423B",
"3#	c #294146",
"4#	c #366F51",
"5#	c #2D4F44",
"6#	c #273240",
"7#	c #377151",
"8#	c #38754D",
"9#	c #2F5646",
"0#	c #283942",
"a#	c #2C4C4D",
"b#	c #366F50",
"c#	c #2E5045",
"d#	c #2C4A44",
"e#	c #366E50",
"f#	c #366C4B",
"g#	c #356A50",
"h#	c #2B4646",
"i#	c #35694B",
"j#	c #2D504D",
"k#	c #2D4D45",
"l#	c #2D4D43",
"m#	c #2E514A",
"n#	c #33624A",
"o#	c #293D45",
"p#	c #2B4245",
"q#	c #34664A",
"r#	c #28323F",
"s#	c #2B4442",
"t#	c #38734F",
"u#	c #293B42",
"v#	c #2C4643",
"w#	c #2C4843",
"x#	c #35694A",
"y#	c #2D4E4C",
"z#	c #305C53",
"A#	c #305951",
"B#	c #2A4042",
"C#	c #376F4C",
"D#	c #336348",
"E#	c #2F5445",
"F#	c #38744C",
"G#	c #336448",
"H#	c #273140",
"I#	c #27333E",
"J#	c #2C4A4C",
"K#	c #2B4342",
"L#	c #27353F",
"M#	c #2B4447",
"N#	c #305B4E",
"O#	c #336550",
"P#	c #2B4545",
"Q#	c #305946",
"R#	c #2F5449",
"S#	c #2F5645",
"T#	c #2C5041",
"U#	c #274A3B",
"V#	c #1F3631",
"W#	c #305846",
"X#	c #336449",
"Y#	c #306841",
"Z#	c #2A4347",
"`#	c #316841",
" $	c #2C5749",
".$	c #31614E",
"+$	c #366B51",
"@$	c #33644B",
"#$	c #2D4F4B",
"$$	c #2E514B",
"%$	c #305948",
"&$	c #2D4D4B",
"*$	c #2C494A",
"=$	c #2F564B",
"-$	c #2A553D",
";$	c #285937",
">$	c #214B2D",
",$	c #306744",
"'$	c #35714A",
")$	c #2D514F",
"!$	c #1D2730",
"~$	c #306941",
"{$	c #336652",
"]$	c #2D4F4D",
"^$	c #325F48",
"/$	c #2E5047",
"($	c #326150",
"_$	c #2D4E45",
":$	c #23313A",
"<$	c #347047",
"[$	c #315E47",
"}$	c #2E5350",
"|$	c #2D5351",
"1$	c #1D3937",
"2$	c #2B563E",
"3$	c #357247",
"4$	c #254644",
"5$	c #2C553F",
"6$	c #2F5545",
"7$	c #2D4D47",
"8$	c #33644A",
"9$	c #2D5050",
"0$	c #294C4A",
"a$	c #2D504C",
"b$	c #305947",
"c$	c #212C36",
"d$	c #272F3F",
"e$	c #2C4749",
"f$	c #32604F",
"g$	c #326351",
"h$	c #315B49",
"i$	c #2F5345",
"j$	c #33634B",
"k$	c #2A4348",
"l$	c #2E5046",
"m$	c #377050",
"n$	c #305748",
"o$	c #283840",
"p$	c #305848",
"q$	c #254643",
"r$	c #305A52",
"s$	c #356A51",
"t$	c #39774F",
"u$	c #315D52",
"v$	c #234240",
"w$	c #315D53",
"x$	c #2C534F",
"y$	c #2C4649",
"z$	c #2C4849",
"A$	c #32604D",
"B$	c #336552",
"C$	c #305D4E",
"D$	c #315F50",
"E$	c #2E5C49",
"F$	c #2A3D44",
"G$	c #2B4147",
"H$	c #306545",
"I$	c #2D6141",
"J$	c #367149",
"K$	c #316A43",
"L$	c #2B4748",
"M$	c #2A4145",
"N$	c #336D45",
"O$	c #366D4B",
"P$	c #37724F",
"Q$	c #2D4C45",
"R$	c #346549",
"S$	c #38764B",
"T$	c #2C474A",
"U$	c #293740",
"V$	c #293F46",
"W$	c #2C484B",
"X$	c #2C504E",
"Y$	c #2B4949",
"Z$	c #2C4F41",
"`$	c #316649",
" %	c #2A4A48",
".%	c #283B42",
"+%	c #2C4F42",
"@%	c #38784C",
"#%	c #366D4A",
"$%	c #2E5743",
"%%	c #2D5542",
"&%	c #294246",
"*%	c #27343E",
"=%	c #294949",
"-%	c #2D5451",
";%	c #294446",
">%	c #39774E",
",%	c #397A4D",
"'%	c #326B43",
")%	c #2E653F",
"!%	c #284647",
"~%	c #202C36",
"{%	c #25313C",
"]%	c #28453C",
"^%	c #346D47",
"/%	c #36734A",
"(%	c #326645",
"_%	c #233D38",
":%	c #2B4E40",
"<%	c #346D46",
"[%	c #336B47",
"}%	c #2A553C",
"|%	c #316047",
"1%	c #1F3632",
"2%	c #2C5C3C",
"3%	c #2E5D40",
"4%	c #27363E",
"5%	c #283E44",
"6%	c #213338",
"7%	c #2A4D4B",
"8%	c #26343E",
"9%	c #293B40",
"0%	c #39794D",
"a%	c #25323D",
"b%	c #28353F",
"c%	c #283D3E",
"d%	c #2F6341",
"e%	c #326B44",
"f%	c #274939",
"g%	c #27353E",
"h%	c #212B35",
"i%	c #2A493F",
"j%	c #305C46",
"k%	c #26393C",
"l%	c #2C4C41",
"m%	c #293D3F",
"n%	c #273D3D",
"o%	c #2B533E",
"p%	c #275237",
"q%	c #316A42",
"r%	c #2A573C",
"s%	c #2B4E4B",
"t%	c #213F3D",
"u%	c #24393D",
"v%	c #273640",
"w%	c #2A4340",
"    . + @ # $ % & * = - ; > , ' ) ! ~ { ] ^ / / / / / ( _ : < [ } | 1 2 3 = 4 5 6 7 8 , - 9 3 3 3 3 0 3 a b c / | d e f ^ | / g ",
"  h i j j k l m n o 3 p q 9 9 r s t u v w x / / | / y z A B C D E / F G = & H I J K L m m M N 0 3 3 m O P 6 Q / x R g ^ S | / x ",
"T U v V W X Y Z `  .....+.3 3 m @.t t t #.$./ / / / / %.&.V W *./ / =.-.3 ;.>.,.W '.).3 3 3 3 3 3 3 !.~.W u {./ / / / / / / / | ",
"].~ ^.^.^./.(._._.Y :.3 <.3 [.3 }.|.^.^.1.2./ / 1 / / 3.,.^.4.5.1 / 6.7.[.[.8.9.4.0.a.3 3 3 3 3 3 3 b.c.^.d.e.2.1 1 1 1 1 f.| g.",
"T t ^.^.^.h.i.F F j.k.l.m.m [.3 }.|.^.^.1.2.1 1 1 / / n.,.^.4.o.1 / 1 m.p.[.8.9.4.q.r.3 3 3 3 3 3 3 s.t.4.u.v.w.2.2./ / / x.x.y.",
": J |.^.^.z.A.l.A.B.1 / C.= [.3 }.|.^.^.1.2.1 1 1 1 2.D.,.^.4.E.1 / 1 _.F.F.G.H.4.q.r.3 3 3 3 3 3 3 I.J.J.K.o./.E.L.M.N.O.P.Q.R.",
"B S.|.^.^.T.3 3 3 U./ / C.= [.3 }.|.^.^.1.2.1 1 1 1 2.V.,.^.4.E.1 / 1 1 1 1 W.X.4.q.r.3 3 3 3 v ^.^.o./ $.3.Y.4.^.Z.`.3 3 3 3 m ",
"B  +|.^.^.T.3 3 3 U./ / C.= [.3 }.|.^.^.1.2.1 1 1 1 2.V.,.^.4.E.1 / 1 1 1 / 3.X.4.q.r.3 3 3 3 v ^.^.o.2.1 3..+4.^.++@+3 3 3 3 3 ",
" +B |.^.^.T.3 3 3 U./ / #+= [.3 $+|.|.|.1.1 %+%+1 1 2.V.&+^.^.E.1 / 1 1 1 / 3.*+4.q.r.3 3 3 3 v |.^.o.2.1 =+Y.4.^.Z.-+3 [.H 3 = ",
";+~ ^.^.^.T.3 3 3 U./ 1 B.>+,+A.'+)+)+)+5.!+~+K.{+2./ ]+^+/+/+(+_+_+,+:+1 1 <+[+}+|+1+3 3 3 3 )+)+)+V./ 1 2+3+}+|+4+5+:+U.6+7+8+",
"9+< |.^.^.T.3 3 3 U./ 1 1 / / / / 2.0+2.K.a+4.v b+0+1 1 2.0+c+d+e+e+f+g+/ 1 h+i+[.j+k+c.l+t.m+$.0+0+/ 1 1 n+Z [.3 o+p+/ / q+/ / ",
"+ ;+^.^.^.T.3 3 3 U.q+1 1 / / / / 1 1 $.K.4.^.d.r+s+1 1 1 1 / j.e+e+Z g+/ 1 h+t+u+3 k+v+^.4.w+x+1 1 1 1 1 n+Z u+[.y+=./ / | q+/ ",
"+ z+d.A+A+).B+m C+D+=.B.E+n.n.n.3.1 1 $.K.4.^.d.F+G+B.=.1 1 / H+I+J+K+,+/ 1 h+t+u+3 k+v+^.4.w+x+1 1 1 1 1 n+Z u+[.L+M+N+=+O+P+Q+",
"R+S+T+U+V+W+j.j.X+f+O.t+Y+Z+`+ @.@%+1 $.K.4.^.u.+@t+O.f+B.1 1 6.F F @@B.1 1 h+t+u+3 k+v+^.4.w+x+1 1 1 1 1 n+Z u+[.#@$@`+%@&@*@  ",
"| / / / 2.2./ q+h+o+p.[.=@-@4.t.;@%+1 $.K.4.^.u.>@[.p.-.E+1 1 1 / / / 1 1 1 h+t+u+3 k+v+^.4.w+x+1 1 1 1 1 n+Z u+3 k+c.4.4.z+,@'@",
"/ / / / )@/ / q+h+t+[.!@~@-@4.t.;@$./ 1 K.a+4.{@]@[.p.-.B.q+/ / 2.2.0+/ 1 1 h+i+[.j+k+c.4.t.^@x+1 1 1 / q+n+/@p.[.(@_@4.4.:@<@[@",
"/ / / / F }@j.j.|@1@2@2@3@4@5@ @6@X+j.U.7@`+5@Z+8@t+o+9@D+j.j.W+V+V+V+0@1 1 2+a@>@2@b@4@`+ @5.c@1 1 _+j.j.U.G o+t+d@e@f@g@h@i@j@",
"/ / / 1 k@m...B+l@g@u.-@m@n@]+]+o@= m m p@n.n.n.E+B.=.U.-...B+q@,.A+A+/.2./ 3.r@-@-@s@V.]+n.3.1 1 1 t@..m = _.h+=.X+u@v@w@m 3 m ",
"/ / / _+x@F.u+[.v@f@4.4. @y@2.z@A.[.[.[.k.2./ / / 1 q+H+= [.3 }.^.^.^.A@2./ 3.X.4.4.B@C@0+/ / 1 1 1 m.u+[.D@:+q+q+E@C+[.[...3 3 ",
"/ / F _+F F.p.[.v@F@4.4. @y@z@z@G@3 3 3 k./ 1 1 1 1 / H+= [.3 }.^.4.4.A@2./ 3.X.4.4.B@C@/ 1 1 1 1 1 2 [.[.D@D+/ / H@C+3 3 = 0 I@",
"/ 1 A.m.,+2  .F.J@K@4.4.K@L@A.A.M@N@N@N@O@/ 1 1 1 1 / H+= [.[.P@Q@R@R@S@/ / 3.X.4.4.B@C@/ 1 1 1 1 1 2 [.[.D@D+/ / T@U@}+N@V@W@X@",
"F k.t+[.3 k.1 1 Y@Z@4.4.Z.`@3 3 $+|.^.|.E.2.1 1 1 1 / H+= [.u+f+n+$.$.$.1 / 3.X.4.4.B@C@/ 1 1 1 1 1 2 [.[.D@D+/ 2.n@ #^.9..#i@+#",
"<.@#3 [.[.l./ / ]+Z@4.4.Z.v@[.3 }.|.^.^.1.2.1 1 1 1 / H+= [.u+f+$.1 1 1 1 / 3.X.4.4.B@C@/ 1 1 1 1 1 2 [.[.D@D+/ 2.n@&+4.##$#%#&#",
"m 3 3 [.[.k.1 1 n.Z@^.^.f@v@[.3 $+|.^.|.1./ $.$.1 1 / H+;.u+u+f+F 1 1 1 1 / 3.X.4.4.B@C@/ 1 1 $.$.$.m.[.[.D@D+/ 2.n@A+^.^.*#=#-#",
"m 3 3 [.[.;#J.J.K.A@h.h.>#i@[.[.Y+/././.5.J.J.,#'#2.2.)#!#~#~#{#7.F.F.:+1 / 3.X.4.4.B@C@/ 2.]#K.J.J.^#[.[.D@D+/ / N+5./././#(#5 ",
"f+<...[.[.~#4.4.d._#w.s+H@= [.u+ .2.2.2.K.a+4.v b+0+2.:#<#4.4.[#}#[.[.g+/ / 3.X.4.4.B@C@/ 0+^+|.4.4.|#3 [.D@D+/ 1 1 2.2.2.Q+1#2#",
"n+3#= [.u+4#4.^.A+_#0+/ C.= [.u+G $.1 $.K.4.^.d.5#6#0+V.,.4.4.7#u+[.[.g+/ / 3.X.4.4.8#C@/ 0+9#|.^.^.|#[.[.D@:+z@/ / 1 1 1 S / / ",
"/ 0#a#= ..b#4.^.A+_#0+/ C.= [.u+G $.1 $.K.4.^.d.c#F x@d#B@d.d.e#u+[.[.g+/ / 3.f#d.d.Z@0@/ 0+9#|.^.^.g#B+..= h#]+n.N+$.1 1 | / z@",
"/ / _+j.U.i#4.^.A+_#0+/ C.= [.u+G $.1 $.K.4.^.u.+@t+o+j#k#_#l#m#[.[.[.g+/ 1 %+n@_#_#V.c@1 0+9#|.^.^.n#o#j.p#q#`+`+w+0@/ 1 | / / ",
"/ / / / 1 J.4.^.A+_#0+/ C.= [.u+G $.1 $.K.4.^.u.>@[.p.-.k@s+c+_.3 [.[.g+/ 1 1 2.0+0+2.1 1 0+9#|.^.^.o.r#/ =+*+t.a+ #s#2.1 | / z@",
"/ / / 1 $.J.4.4.d.r+0+/ C.m u+p.f+$.1 $.K.a+4.{@>@!@[.O.E+1 / A.3 [.[.g+/ 1 1 2.0+0+2.1 1 0+^+^.4.4.o.c+6#<+*+t.a+ #s#2.1 | / / ",
"/ / / 1 $.n#Z.Z.t#e.2./ E@Z O.-.t@$.1 1 A@ @ @m@3@~@2@1@u#/ / A.3 [.[.g+/ 1 %+v#V+V+w#c@1 2.v.Z@ @ @T+]#]#r+x# @ @w+0@/ / z@/ / ",
"/ z@/ 1 1 y#z#v@A#X+/ 1 $.B.B.B.h+1 1 1 =+B#n.{+C#-@-@m@0@/ / A.3 [.[.g+/ / 3.^@d.A+Z+0@/ 1 2+n.B#y@D#A+A+ #E#]+B#]+$.1 / | / q+",
"/ | 1 1 1 F.[.[.m U./ 1 1 1 1 1 1 1 1 1 / / 2.3.Z+4.4.F#0@/ / A.3 [.[.g+/ / 3.X.4.4.8#C@/ 1 1 / / / G#4.4.v v.H#/ / 1 1 1 q+| I#",
"/ / / / / J#[.3 B+U./ 1 1 1 1 1 / 0+0+0+/ 1 / N+Z+4.4.F#0@/ / A.[.u+[.k.s+6#<+Z+t.a+8#K#2.1 1 1 1 1 G#4.^.d.F+0+1 1 2.0+0+g.z@S ",
"/ L#M#A.,+N#|+|+O#P#2.1 1 1 1 / D.Q#Q#Q#n@/ / N+Z+4.4.F#0@/ / j. . . .R#)+Q#/+,#x#x#5.]+/ 1 1 1 1 1 G#4.^.d.F+0+/ W.S#)+S#T#U#V#",
"F D+3 [.[.4#^.^.A+_#0+1 1 1 1 0+W#u.|.|.E.2./ N+Z+4.4.F#0@/ 1 1 $.$.$.X#^.|.A+v./ %+%+1 1 1 1 1 1 1 G#4.^.d.F+0+2.n@ #^.|.&@Y#i ",
"Z#t+3 [.[.4#4.^.A+_#0+1 1 1 1 0+Q#|.^.^.1.2./ N+Z+4.4.F#0@/ 1 1 1 1 1 ,#4.^.d.S@0+1 1 1 1 1 1 1 1 1 G#4.^.d.F+0+2.n@&+4.^.r.i ,@",
"Q.= 3 [.u+4#^.^.A+_#2.1 1 $.$.2.Q#|.^.|.E.2./ N+Z+4.^. @0@/ 1 1 1 1 1 ,#4.^.d.S@0+1 1 1 1 1 1 $.$.$.G#^.^.d.F+0+2.n@&+^.^.J `#i ",
" $.$+$7#4#@$E.E./.#$F.J#$$X#J.J.D#E.E.E.V./ 1 x+E#E.E.%$&$F.F.A.$.1 1 ,#4.^.d.S@0+1 E+*$F.J#=$K.K.K..@E.E./+K#/ / N+W#E.A@-$;$>$",
",$'$u.4.^.h.w.0+n+)$p.[.2@-@4.a+x#1 2.2./ 1 1 1 2.2.s+H@= u+p.f+F 1 1 ,#4.^.d.S@0+/ H+= u+3 }.^.4.4.o.c+2.2./ 1 1 1 2.2.2.R } !$",
"~$r.^.^.^./.2.1 =.o+u+3 ~@_@^.4.x#%+1 1 1 1 1 1 1 1 / H+= [.u+f+1 / / ,#4.4.d.S@6#q+H@= [.3 {$|.^.^.o.2.1 1 1 1 1 1 / / / / / | ",
"U v ^.^.^./.2.1 =.Z D@B+@._@^.4.x#%+1 1 1 1 1 1 1 1 / H+= [.[.]$Y@]+]+X#d.d.&+c#F h+j.-...B+3@|.^.^.o.2.1 1 1 1 / 1 / / / / / / ",
",@|.^.^.^.^$2.1 $.H+U.o#/$A+^.4.x#%+1 1 1 1 1 1 1 1 / H+= [.3 ($Z+Z@Z@^$_#r+_$3 3 3 9@D+U.o#>#|.^.^.o.2.1 1 1 1 / =.>+>+e+E+L#:$",
"<$v ^.^.^.^$2.1 1 / / s+:#,.^.4.x#%+1 1 1 1 1 1 1 1 / H+= [.3 }.^.4.4.[$w.6#)@3 3 3 }$B.q+c+S#|.^.^.o.2.1 1 1 1 / H@= [.D@}$|$1$",
"2$3$^.4.^.T+2.1 1 / / s+:#A+4.4.x#%+1 1 / 2.2.2./ 1 / H+m u+[.}.|.^.^.[$2.1 h+3 3 3 -._+/ 0+9#|.^.^.o.2.1 1 1 1 / E@= [.[.m m 4$",
"P+5$x# @ @6$2.1 $.E@C.H@7$t#Z.++8$%+1 1 C@]#:#V.=+/ / E@Z -.9${#|.^.^.[$2.1 h+3 3 3 -._+/ 0+9#|.^.^.o.2.1 1 1 1 / E@= [.[.= 3 0$",
"| I#3.B#B#<+1 1 =.<.m = D@v@z#z#a$$.1 1 5.A+<#8#_#2.1 $.B.B.x@b$|.^.^.[$2.1 h+3 3 3 -._+/ 0+9#|.^.^.o.2.1 1 1 1 / E@= [.[.= 3 4 ",
"x.S / / / 1 1 1 =.o+u+[.[.[.[.[.a#$.1 $.K.4.4.d.b+0+1 1 1 1 s+^+|.^.^.[$2.1 h+3 3 3 -._+/ 0+9#|.^.^.o.2.1 1 1 1 / E@= [.[.;.3 - ",
"c$f./ 1 1 / / q+n+t+[.3 3 [.u+p.G 1 / 1 K.a+4.v r+d$0+2.1 1 0+W#|.^.^.[$r#q+n+3 3 3 }$_+/ 0+^+|.4.4.o.2.1 1 2.0+s+_+C+[.[.m 3 - ",
"^ / / 1 1 j.A.A.e$f$|+|+g$]$a#f+2 A.A.A.h$;@x#!+1.W#Q#i$<+1 0+W#|.^.^.j$k$A.,+3 3 3 2 =.1 2.l$m$7#7#n$/ 1 o$S@Q#W#p$i@[.3 3 3 q$",
"I#/ / 1 1 F.[.3 r$9.^.^.`+0@1 1 A.D@[.3 g+%+%+n.X.^.^. @0@/ 0+W#|.^.^.s$3 [...:+1 $.$.1 1 / >+i@u+u+t@/ 1 =+Y.^.^.t$u$3 3 ..q v$",
"/ / / / 1 F.[.[.v@F@4.4. @B#/ / A.[.[.[.k./ / N+Z+4.4.F#0@/ 0+W#|.^.^.s$3 [...:+/ 1 1 1 1 / >+3 [.[.Y / 1 3..+4.^.++w$3 [.q 3 q$",
"/ / / / 1 2 [.[.8.9.^.4. @0@/ 1 A.[.[.[.k./ / N+Z+4.4.F#0@/ 0+^+|.^.^.s$3 [...:+/ 1 1 1 1 / >+D@[.[.Y / 1 3..+4.^.++-+[.[.x$0 ;.",
"/ / / =.}@y$k.k.z$L.1.1.o.,#K.K.A$[.[.[.k./ / N+Z+4.4.F#0@/ 2.7$T.s$s$~@[.[...:+/ 1 B.t@F.F.2 k.k.k.C.1 1 c@E#1.1.7@g#B$]@C$D$E$",
"F$X+G$l.Z G@z@/ / 2.2.w.:#A+4.4.7#u+[.[.k./ / N+Z+4.4.F#0@/ / G@3 3 3 [.[.[...:+/ / H+= u+p.f+$./ / 1 1 1 1 2.2.s+n.,#K@Z.H$I$J$",
"C+r 3 [.[.l./ 1 1 1 1 2.]#,.^.4.7#u+[.[.k./ / N+Z@4.4.F#0@2.z@>+[.[.[.[.[.[...:+/ / H+= [.u+f+F 1 1 1 1 1 1 1 1 / $.V.8#^.K$9+r.",
"3 q [.[.[.l./ 1 1 1 1 2.]#,.^.4.7#u+[.[.k./ / W.Y.v d.Z@n@3.W.L$m ....>.8.8.>.M$/ / H+= [.u+f+F 1 1 n+p+p+h+$.1 / / ]#8#^.! N$Y#",
"..p [.[.[.l./ 1 1 1 1 2.]#,.^.4.7#u+[.[.k./ 1 %+V.b+r+9#O$Z@Z@6@M$U.X+z.F@9.P$Q$2./ H+= [.u+f+F 1 1 ,+t+t+Z C./ / / b+V ^.~ 3$6 ",
"= = 3 [.[.l./ 1 1 1 1 2.]#,.^.4.7#u+[.[.A./ / / 2.0+w.w#A+4.t.w+%+/ / R$4.4.v S@0+/ H+= [.u+7.F 1 1 m.p.u+D@D+/ / / S@4.^.S$J U ",
"q 3 3 [.[.T$/ 1 / / / 2.o.d.^.4.7#=  .g+}@/ / / / / 2.D.,.^.4.~+U$1 1 ,#4.^.v b+2./ V$C+3 [.W$1 1 1 m.[.[.D@D+/ / / n@V ^.v U h ",
"X$3 3 m m Y$R S / / / | Z$v ~ : `$ %.%1 / / / / / / / +%@%u t #%( | S $%: @%@%%%g./ E@C+3 3 &%/ | *%=%9 -%q ;%/ / / W.>%^.,%'%)%",
"% = 3 3 ..!%~%g.{%q+/ | ]%^%]./%(%_%{%| / / / | / x $.:%<%[%}%|%( x / 1%2%S$~ 3%4%/ @@-.9 % 5%/ x 6%7%= 3 m 7%8%/ / 9%&+u 0%,%v ",
"3 , 3 3 ..g+L#a%I#S | b%c%d%r.e%f%g%d g./ / / h%c$/ I#i%j%k%l%m%| / x n%o%p%q%r%^ / :+s%t%, D+/ | u%= 3 3 3 O.v%/ / w%I @%U J   "};
