/* XPM */
static char * wall_xpm[] = {
"64 64 150 2",
"  	c #A9A9A9",
". 	c #A5A5A5",
"+ 	c #A6A6A6",
"@ 	c #A8A8A8",
"# 	c #A7A7A7",
"$ 	c #A1A1A1",
"% 	c #A4A4A4",
"& 	c #A2A2A2",
"* 	c #9E9E9E",
"= 	c #AAAAAA",
"- 	c #999999",
"; 	c #989898",
"> 	c #9B9B9B",
", 	c #9F9F9F",
"' 	c #ABABAB",
") 	c #C1C1C1",
"! 	c #BABABA",
"~ 	c #B1B1B1",
"{ 	c #898989",
"] 	c #A3A3A3",
"^ 	c #6D6D6D",
"/ 	c #515151",
"( 	c #4D4D4D",
"_ 	c #595959",
": 	c #808080",
"< 	c #9D9D9D",
"[ 	c #979797",
"} 	c #9C9C9C",
"| 	c #ACACAC",
"1 	c #A0A0A0",
"2 	c #949494",
"3 	c #919191",
"4 	c #9A9A9A",
"5 	c #ADADAD",
"6 	c #959595",
"7 	c #8D8D8D",
"8 	c #939393",
"9 	c #B2B2B2",
"0 	c #C6C6C6",
"a 	c #D1D1D1",
"b 	c #CACACA",
"c 	c #C5C5C5",
"d 	c #C3C3C3",
"e 	c #BDBDBD",
"f 	c #8C8C8C",
"g 	c #8E8E8E",
"h 	c #969696",
"i 	c #8B8B8B",
"j 	c #878787",
"k 	c #7D7D7D",
"l 	c #C8C8C8",
"m 	c #AEAEAE",
"n 	c #909090",
"o 	c #C9C9C9",
"p 	c #B9B9B9",
"q 	c #BBBBBB",
"r 	c #BCBCBC",
"s 	c #BEBEBE",
"t 	c #C0C0C0",
"u 	c #636363",
"v 	c #4B4B4B",
"w 	c #929292",
"x 	c #CBCBCB",
"y 	c #686868",
"z 	c #B5B5B5",
"A 	c #C7C7C7",
"B 	c #C4C4C4",
"C 	c #C2C2C2",
"D 	c #B3B3B3",
"E 	c #B6B6B6",
"F 	c #B8B8B8",
"G 	c #818181",
"H 	c #555555",
"I 	c #AFAFAF",
"J 	c #CCCCCC",
"K 	c #B0B0B0",
"L 	c #6E6E6E",
"M 	c #616161",
"N 	c #747474",
"O 	c #585858",
"P 	c #CFCFCF",
"Q 	c #757575",
"R 	c #626262",
"S 	c #676767",
"T 	c #B5B4B4",
"U 	c #949393",
"V 	c #5A5A5A",
"W 	c #525252",
"X 	c #4F4F4F",
"Y 	c #575757",
"Z 	c #6A6A6A",
"` 	c #B7B7B7",
" .	c #858585",
"..	c #5F5F5F",
"+.	c #4C4C4C",
"@.	c #696969",
"#.	c #8F8F8F",
"$.	c #A4A3A3",
"%.	c #797778",
"&.	c #626162",
"*.	c #504F50",
"=.	c #5E5E5E",
"-.	c #565656",
";.	c #545454",
">.	c #505050",
",.	c #8A8A8A",
"'.	c #666666",
").	c #5B5B5B",
"!.	c #4E4E4E",
"~.	c #828282",
"{.	c #888888",
"].	c #838383",
"^.	c #7F7F7F",
"/.	c #5C5C5C",
"(.	c #575657",
"_.	c #737373",
":.	c #868686",
"<.	c #7E7E7E",
"[.	c #6B6B6B",
"}.	c #6C6C6C",
"|.	c #656565",
"1.	c #606060",
"2.	c #848484",
"3.	c #767676",
"4.	c #4A4A4A",
"5.	c #D2D2D2",
"6.	c #BFBFBF",
"7.	c #7A7A7A",
"8.	c #CECECE",
"9.	c #D0D0D0",
"0.	c #CDCDCD",
"a.	c #7C7C7C",
"b.	c #7B7B7B",
"c.	c #777777",
"d.	c #797979",
"e.	c #787878",
"f.	c #535353",
"g.	c #707070",
"h.	c #646464",
"i.	c #5D5D5D",
"j.	c #717171",
"k.	c #727272",
"l.	c #D4D4D4",
"m.	c #B4B4B4",
"n.	c #737272",
"o.	c #6F6F6F",
"p.	c #717071",
"q.	c #646363",
"r.	c #6D6C6D",
"s.	c #737172",
"              . + @ @ @ #     @ @ @ + + + +                                           @                 @ . $ $ $ % % & * %   # ",
"@                       @ + + + + . . % % + #                                                             @ @ @         @       ",
"@                                                                                                         @                     ",
"@                                                                   @ @   @ @ @                                       @ @       ",
"          @ @ @ @ @ @ @                                                                                                 @ +     ",
"@           = = = @ # + # =                               @ @                                                         @ @ + @   ",
"            = @ - ; > . , @ = = = = = =     @ @ # # # + + + + + + # # # @ @ @                               = = = = =   @ # @   ",
"          = = & ' ) ! ~ { , = = = =   @ @ # # + + + . . . % % % % % % % . . + # # # @ @ @     = = = = = = = = = = =     @ + @   ",
"        @ = = * ] ^ / ( _ : ' =     @ # # + . . % % ] ] ] & & & & & & ] ] ] % % . . + + # @ @   = = = = = = = = = =     @ @     ",
"    @ @ @ = = @ < [ } . # ' |   @ @ # + & < 1 & & & & $ $ $ 1 1 1 1 $ $ , 2 3 4 & ] % . + + # @ @ $ } # = = = = = =     @       ",
"    @ # @ = = = | | ' ' = =   @ # . < 3 - 5 % 6 3 2 [ } * * * , , , * 4 7 ~ ! * 8 } ] % % . + + } 4 9 ; . = = = = = = @         ",
"    @ # @ = = = = = = =     # & 2 2 ' 0 a b ) c d e 9 ] > f g h } < < - 6 i j { k - & & ] % % ; $ l m [ [ = = = = = =           ",
"  @   + @ = = = = = =   + } n * e b o l o 0 p q r s t d 0 c r - } > > } , n u v w + 1 1 $ & - & x m y _ [ 5 = = = = = @       # ",
"      + @       =   & w } z A b c d B B c C 9 D z E F r e ' G { } ; - - - } * 4 ] < < , 1 } > d ] _ H 1 I   = = = = = @       @ ",
"                = * ' o a J 0 B d d d d d t I m I K ~ & G L M , [ h h [ [ ; - 4 4 > } < * < } N O M @ ' # @   = = = = @       @ ",
"                = - r b P x 0 d d d d d d ) m @ $ 6 Q R S y k > 2 2 2 2 6 h h [ ; - 4 > } * $ # &   + . + # @   = = =         @ ",
"              =   4 q F B b 0 d d d d ) T U y V W X Y u Z u 6 8 w w w w 8 8 2 6 h [ ; - > } < * 1 & ] % . # @   = =             ",
"            = = # } ! ` 9 ` d d d ! +  ...( v +.+.X Y R @.L - #.#.#.#.n n 3 w 8 2 6 h ; - > } < , 1 & ] % . # @   =   @         ",
"  #         =   + , q E ~ @ . $.n %.&.*.+.+.+.+.( W V =.O i n 7 7 7 7 g g #.n 3 w 8 2 h [ - > } < , 1 & ] . + . & @ = #       @ ",
"@ +       =   @ % % ! E K ; Z -.Y ;.+.v +.+.+.( >.H ;.M ,.6 ,.,.,.,.i i f 7 g g n 3 w 2 6 [ - 4 } * , $ & % . 4 & [ ] + #     + ",
"@         =   @ 1 ' p 9 #.'.).Y Y W +.+.+.+.!.>.>./ ~.; g { {.{.{.{.{.{ ,.{.k ].^.~.{.g w 6 [ - > } * 1 $ ] % > 2 6 g + @     @ ",
"      # @   @ # * m @ G ^ S R =./.(.!.+.+.X >.( _.h 3 {.j :.:. . .:.:.:.<.G E l C F I # h g i { n h } * 1 & ] % ,.).> + # @     ",
"      # @   @ + $ 2 [.@.}.}.Z y |.1.;.X ( v '.3 2 ,.j :. .2.2.2.2.].: Q % o o c q s ) C c c d t 9 # ; * , $ ] % * 3.m + # @ # @ ",
"      +     @ + . @ # 6 G L '.@.Z S O 4.-.{ - f j :. .2.~.~.G G : 3.i 0 5.b c c z E F p q e 6.C d + n * * 1 & % + + = #   @ @   ",
"            @ . % & $ 1 & & > { 3.).!.G 4 n { j :.2.].~.G : : ^.7.. 8.a 9.0.l c D K 9 9 D E ! 6.= j  .* * 1 $ ] . + @ @       # ",
"      #     # . ] & 1 * } 4 - - > 4 - h f ,.{.:.2.].G : ^.<.<.k <.G : ,.#.8 h ; } = I I I ~ E @ :. .G 4 < , $ & % + @         + ",
"      @   @ + . ] $ , < } 4 [ 6 8 3 #.7 ,.{.:. .].G : <.k a.a.b.a.<.^.b.G ~.<.c.L N ~.i h * * <.~.:.~.2 < * 1 & % . #       @ ] ",
"          @ + % & $ * h 2 ; [ 2 w n g i { j  .].G : <.k a.7.7.d.d.d.k ^.b.~.~.k e.^ Y f.W ;.V g.^. .2.{ < * 1 & ] . # @     % # ",
"          @ . % & < i + * f f w 3 #.7 i { :.2.~.: ^.k b.7.d.e.e.e.e.e.a.^.b.: G ^.L /.Y ;.f.f./._.]. .~.< < , $ ] . + @   @ &   ",
"@         @ . % & > < ~ % + $ 7 g #.f ,.{. .2.G ^.k b.7.d.e.c.3.3.3.c.e.b.: b.G : [.h.=.V O -.H i.L <.a.h < , $ ] % # @   @ @   ",
"      @   @ . % & $ 4 3.Q Z h.].h #.f { j  .].<.N Q ].7.e.3.Q Q Q Q 3.c.e.b.G a.Q '.'.h.R M ..).-._ h.j.:.* * 1 & % @           ",
"      + @ @ . ] $ 1 * g u H w * w g f { j : Q 2.~ A {.a.c.3.N N N N Q 3.e.7.a.].k c._.g.L @.'.M /.;./ f.@.1 , 1 & % @           ",
"      . @ # . ] $ , < } ,.$ 4 w n g f { ].3 t x p } g.<.c.Q N _.k.N Q 3.e.d.b.<.].j i g w 6 - } , < - ; 4 $ * 1 & % @           ",
"        @ # . ] $ , < } } ; 6 w n g f { : . ; [.W X Y k e.3.N _._.N Q 3.e.d.b.k ^.G 2. .{.,.7 #.w 2 h ; > < * 1 & % @           ",
"          @ . ] $ 1 * } 4 [ 6 8 3 g f { ].{ 3.k ^.]. .~.e.3.Q N N N Q c.e.7.a.<.: G 2.:.{.,.7 #.w 2 h - > < * 1 & % @       @ + ",
"          # & ] & 1 * } 4 ; h 8 3 g f ,.{.f ,.:.~.^.a.7.e.c.3.3.Q 3.3.e.d.b.a.<.: ~.2.:.{ i 7 n w 2 [ - > < , $ & % @       @ % ",
"      @   * , - $ 1 * } 4 ; h 8 3 #.7 ,.{.:.2.~.: <.a.b.7.e.e.c.c.c.e.d.7.a.k ^.G ]. .j { i g n 8 2 [ h ; < , $ ] % @           ",
"        @ @ K #.6 1 , < > - h 2 w n g i { j  .].G ^.<.a.b.7.d.d.d.d.7.7.b.k <.: ~.2. .{.,.f #.3 8 6 6 #.[ 6 , $ ] + @           ",
"      @ @ > }.i.<.1 , < > ; w 8 w n g f ,.{.:.2.~.: ^.<.a.b.b.7.7.b.b.a.k <.: G ~.k 7.^.j 7 #.w 2 h h 3 g ,.h & ] +             ",
"          @ g & ' % , * > ,.& #.j f g 7 i { j  .].~.: ^.<.b.N _.7.a.k <.^.: ^.e.d.# l D [ 2.f w 6 [ - 4 Q Z 1 ] % #           # ",
"      @ # @   # % & 1 * #.# B I ~ & f 2.{ ,.{.j  .].~.G ^.Q ~ #.b.^.^.^.a.k.{.m J P 0.z ` D > { 3 [ 4 } *   % ] % #           1 ",
"      . # @ # + % & $ 2 $ o ) ~ D ! r 9 - ^.2.j j  .2.~.: 2.].L 7 : d.k.- t x A 0 b b ~ ~ D E 9 } f h } * 1 & ] . #   @       h ",
"        @   @ + . ] - < 9.A t z K D z F r q . f ].j :. .2.<.c.3 ].b.% 0.l.8.o c c 0 B @ = 5 K 9 z m.1 w - 1 ] % . @   @     + $ ",
"            @ # . < [ 9.0.0 t ` @ ' I 9 z ` m.$ { i {.j :.:.,. .2.~., E b P x 0 B B t 1 $ .   m K D ` z ] 2 * % + @   @ #   #   ",
"            @ # % 6 8.P b B ) q % % . & [ ].^ '.; f ,.{ {.{.j j j :.i 6 ; # ! d c B e } > < $ .   5 K D E ` % < + @   @ @   @   ",
"              @ } ` 0.0.l C 6.m.8 : [.i.=.|.i.3 w 7 f i ,.,.{ { { { {.2 6 8 f f * = g j h 4 } < $ .   m D D . 8 = @   @ @       ",
"      @     = @ [ ) t d d 5 ]._ f.>.W _ M M b.> n #.g g 7 f f f f f ,.#.2 2 n j b.N k.n.3.:.6 4 > < & # ,  .o.n '     @       # ",
"      @     = @ } ! | ] G i.;.W W W Y =.u h.* 6 8 3 n #.#.g g g g g g f 2 6 8 i ^.y 1.@.p.k.3. .6 ; i Q ^ g.@.1 = =         @ # ",
"      #     =   & g #.2.y 1.V Y H ;.O 1.).2 > h 6 2 8 w 3 3 3 3 3 3 3 n 3 6 2 #.e.1.V _ ).q.r.s.Q Z ).R }.g.Z |   =         @ @ ",
"      @     = = = < i k.@.'.R ..).H Y Y d.% - ; [ h 6 2 8 8 8 8 w 8 8 8 n 6 8 2.L |.../.V _ _ ..S )./.|.L j.k.K = =             ",
"      @     = = =   { g.^ @.R /.Y >.( Y ] < > 4 - ; [ h h h 6 6 6 6 6 h 2 w :.Q k.^ y u ..i.V _ _ _ i.S L ^ 7 5 = =     @       ",
"            = = = = 5 K ~ I # ] 1 > ; , & < } > > 4 - - ; ; ; [ [ [ ; ; ; [ a.Z o.j.g.^ @.|.R ..).V ..@.g.Z 4 | = =           # ",
"            = = = = =   @ # + . . % % & 1 , * < < } > > 4 4 4 4 4 4 4 4 > } $ , ,.g.}.j.j.L [.y u i...@.o.'.5 = = =         @ ] ",
"            = = = = = =   @ # + + % % ] & $ 1 , * < 4 4 } } } > > } } } } < < * & + ; : Z L j.g.}.h.i.u Z g.m = = =           ] ",
"@           = = = = = = =   @ @ # + . % ] & & $ 1 } 2 8 w 4 < < < < * * * , , 1 1 $ ] @ + #.k.^ o.Z =.i.M ^.m = = =           @ ",
"@           = = = = = # & & @ @ @ # + . . % ] & & 8 I | $ [ w > , 1 1 1 1 $ $ $ & ] % % .   | , 2.h./.V -.8 | = = =           . ",
"#           = = = = $ > = 1 ]     @ # # + . . % ] 6 @ [ } . = > - $ $ & & & ] ] % . . + + # @   5 ' n |.X 1 ' = = =           # ",
"+             = = = - n 3.y 2 ' =     @ @ @ + + . $ 2._.Z M 1.k $ % % % % % . . . + # # @ @   = = = | I 1 5 = = = = =           ",
"+               = = # I K K I ' = =         @ @ @ # % b.f.h.* m @ . . . . + + + # # @ @     = = = = = = = = = = = = =         1 ",
"                    = = = = =                       @ + % m   @ @ @ @ @ @ @                                                 @ # ",
"@                   @ @ @                   @   @   @   + % . +   @ # # #   # @ @ @ @ @ @ @ @               @   @               ",
"@               @                       @ @     @ # @     @ @     @ @ + + + @ @         @ @                                     ",
"                                      @ # # @ @ @ # @ @ @       @ @ @ @                                                       @ ",
"                                                                            @ @           # +                           @ ]     "};
